<mxfile host="app.diagrams.net" agent="Mozilla/5.0 (Windows NT 10.0; Win64; x64) AppleWebKit/537.36 (KHTML, like Gecko) Chrome/130.0.0.0 Safari/537.36" version="24.8.3">
  <diagram id="C5RBs43oDa-KdzZeNtuy" name="Page-1">
    <mxGraphModel dx="522" dy="538" grid="1" gridSize="10" guides="1" tooltips="1" connect="1" arrows="1" fold="1" page="1" pageScale="1" pageWidth="827" pageHeight="1169" math="0" shadow="0">
      <root>
        <mxCell id="WIyWlLk6GJQsqaUBKTNV-0" />
        <mxCell id="WIyWlLk6GJQsqaUBKTNV-1" parent="WIyWlLk6GJQsqaUBKTNV-0" />
        <mxCell id="IzQH3LcdUczuHBSbvEu7-3" value="" style="edgeStyle=orthogonalEdgeStyle;rounded=0;orthogonalLoop=1;jettySize=auto;html=1;" edge="1" parent="WIyWlLk6GJQsqaUBKTNV-1" source="IzQH3LcdUczuHBSbvEu7-0" target="IzQH3LcdUczuHBSbvEu7-2">
          <mxGeometry relative="1" as="geometry" />
        </mxCell>
        <mxCell id="IzQH3LcdUczuHBSbvEu7-0" value="" style="ellipse;whiteSpace=wrap;html=1;fillColor=#FFCC99;" vertex="1" parent="WIyWlLk6GJQsqaUBKTNV-1">
          <mxGeometry x="270" y="90" width="90" height="90" as="geometry" />
        </mxCell>
        <mxCell id="IzQH3LcdUczuHBSbvEu7-1" value="Inicio" style="text;strokeColor=none;align=center;fillColor=none;html=1;verticalAlign=middle;whiteSpace=wrap;rounded=0;" vertex="1" parent="WIyWlLk6GJQsqaUBKTNV-1">
          <mxGeometry x="285" y="120" width="60" height="30" as="geometry" />
        </mxCell>
        <mxCell id="IzQH3LcdUczuHBSbvEu7-5" value="" style="edgeStyle=orthogonalEdgeStyle;rounded=0;orthogonalLoop=1;jettySize=auto;html=1;" edge="1" parent="WIyWlLk6GJQsqaUBKTNV-1" source="IzQH3LcdUczuHBSbvEu7-2" target="IzQH3LcdUczuHBSbvEu7-4">
          <mxGeometry relative="1" as="geometry" />
        </mxCell>
        <mxCell id="IzQH3LcdUczuHBSbvEu7-2" value="&lt;br&gt;&lt;span style=&quot;color: rgb(26, 26, 26);&quot;&gt;Mostrar mensaje: &quot;Por favor, ingrese una palabra&quot;&lt;/span&gt;&lt;div&gt;&lt;br/&gt;&lt;/div&gt;" style="shape=parallelogram;perimeter=parallelogramPerimeter;whiteSpace=wrap;html=1;fixedSize=1;align=center;fillColor=#FFFF99;" vertex="1" parent="WIyWlLk6GJQsqaUBKTNV-1">
          <mxGeometry x="206.88" y="200" width="216.25" height="60" as="geometry" />
        </mxCell>
        <mxCell id="IzQH3LcdUczuHBSbvEu7-7" value="" style="edgeStyle=orthogonalEdgeStyle;rounded=0;orthogonalLoop=1;jettySize=auto;html=1;entryX=0.5;entryY=0;entryDx=0;entryDy=0;" edge="1" parent="WIyWlLk6GJQsqaUBKTNV-1" source="IzQH3LcdUczuHBSbvEu7-4" target="IzQH3LcdUczuHBSbvEu7-9">
          <mxGeometry relative="1" as="geometry">
            <mxPoint x="310" y="470" as="targetPoint" />
          </mxGeometry>
        </mxCell>
        <mxCell id="IzQH3LcdUczuHBSbvEu7-4" value="&#xa;&lt;span style=&quot;color: rgb(26, 26, 26);&quot;&gt;Definir la variable cantidad_letras y agregarle la Longitud de palabra_ingresada&lt;/span&gt;&#xa;&#xa;" style="rounded=1;whiteSpace=wrap;html=1;fillColor=#6BF5FF;" vertex="1" parent="WIyWlLk6GJQsqaUBKTNV-1">
          <mxGeometry x="225" y="280" width="180" height="70" as="geometry" />
        </mxCell>
        <mxCell id="IzQH3LcdUczuHBSbvEu7-12" value="" style="edgeStyle=orthogonalEdgeStyle;rounded=0;orthogonalLoop=1;jettySize=auto;html=1;" edge="1" parent="WIyWlLk6GJQsqaUBKTNV-1" source="IzQH3LcdUczuHBSbvEu7-9" target="IzQH3LcdUczuHBSbvEu7-11">
          <mxGeometry relative="1" as="geometry" />
        </mxCell>
        <mxCell id="IzQH3LcdUczuHBSbvEu7-9" value="&lt;br&gt;&lt;span style=&quot;color: rgb(26, 26, 26);&quot;&gt;Mostrar mensaje:&amp;nbsp;&lt;/span&gt;&lt;div&gt;&lt;span style=&quot;color: rgb(26, 26, 26);&quot;&gt;&quot;La palabra ingresada tiene&quot;, cantidad_letras, &quot;letras.&quot;&lt;/span&gt;&lt;br&gt;&lt;br&gt;&lt;/div&gt;" style="shape=parallelogram;perimeter=parallelogramPerimeter;whiteSpace=wrap;html=1;fixedSize=1;align=center;fillColor=#FFFF99;" vertex="1" parent="WIyWlLk6GJQsqaUBKTNV-1">
          <mxGeometry x="200" y="370" width="230" height="70" as="geometry" />
        </mxCell>
        <mxCell id="IzQH3LcdUczuHBSbvEu7-11" value="Fin" style="ellipse;whiteSpace=wrap;html=1;fillColor=#FFCC99;" vertex="1" parent="WIyWlLk6GJQsqaUBKTNV-1">
          <mxGeometry x="275" y="460" width="80" height="80" as="geometry" />
        </mxCell>
      </root>
    </mxGraphModel>
  </diagram>
</mxfile>
